<?xml version="1.0" encoding="UTF-8" standalone="no"?>
<svg
   viewBox="0 0 73.567 356.27803"
   width="73.567001"
   height="356.27802"
   version="1.1"
   id="svg264"
   sodipodi:docname="pcbOutline.svg"
   inkscape:version="1.2 (dc2aeda, 2022-05-15)"
   xmlns:inkscape="http://www.inkscape.org/namespaces/inkscape"
   xmlns:sodipodi="http://sodipodi.sourceforge.net/DTD/sodipodi-0.dtd"
   xmlns="http://www.w3.org/2000/svg"
   xmlns:svg="http://www.w3.org/2000/svg">
  <sodipodi:namedview
     id="namedview266"
     pagecolor="#ffffff"
     bordercolor="#000000"
     borderopacity="0.25"
     inkscape:showpageshadow="false"
     inkscape:pageopacity="0.0"
     inkscape:pagecheckerboard="0"
     inkscape:deskcolor="#d1d1d1"
     showgrid="false"
     inkscape:zoom="1.1558809"
     inkscape:cx="7.3536991"
     inkscape:cy="115.06376"
     inkscape:window-width="1464"
     inkscape:window-height="916"
     inkscape:window-x="48"
     inkscape:window-y="38"
     inkscape:window-maximized="1"
     inkscape:current-layer="g262"
     showborder="false"
     borderlayer="false"
     shape-rendering="crispEdges" />
  <desc
     id="desc198">Sketch14.dxf - scale = 1.000000, origin = (0.000000, 0.000000), method = manual</desc>
  <defs
     id="defs212">
    <marker
       id="DistanceX"
       orient="auto"
       refX="0"
       refY="0"
       style="overflow:visible">
      <path
         d="M 3,-3 -3,3 M 0,-5 V 5"
         style="stroke:#000000;stroke-width:0.5"
         id="path200" />
    </marker>
    <pattern
       id="Hatch"
       patternUnits="userSpaceOnUse"
       width="8"
       height="8"
       x="0"
       y="0">
      <path
         d="M8 4 l-4,4"
         stroke="#000000"
         stroke-width="0.25"
         linecap="square"
         id="path203" />
      <path
         d="M6 2 l-4,4"
         stroke="#000000"
         stroke-width="0.25"
         linecap="square"
         id="path205" />
      <path
         d="M4 0 l-4,4"
         stroke="#000000"
         stroke-width="0.25"
         linecap="square"
         id="path207" />
    </pattern>
    <symbol
       id="*MODEL_SPACE" />
    <symbol
       id="*PAPER_SPACE" />
  </defs>
  <g
     inkscape:groupmode="layer"
     inkscape:label="0"
     id="g262"
     transform="translate(36.7835,-944.382)">
    <path
       d="m 0.25,955.84252 a 0.25,0.25 0 0 0 -0.5,0 0.25,0.25 0 0 0 0.5,0 z"
       style="fill:none;stroke:#000000"
       id="path230" />
    <path
       d="m 0.25,992.88189 a 0.25,0.25 0 0 0 -0.5,0 0.25,0.25 0 0 0 0.5,0 z"
       style="fill:none;stroke:#000000"
       id="path232" />
    <path
       d="m 0.25,1029.9213 a 0.25,0.25 0 0 0 -0.5,0 0.25,0.25 0 0 0 0.5,0 z"
       style="fill:none;stroke:#000000"
       id="path234" />
    <path
       d="m 0.25,1066.9606 a 0.25,0.25 0 0 0 -0.5,0 0.25,0.25 0 0 0 0.5,0 z"
       style="fill:none;stroke:#000000"
       id="path236" />
    <path
       d="m 0.25,1104 a 0.25,0.25 0 0 0 -0.5,0 0.25,0.25 0 0 0 0.5,0 z"
       style="fill:none;stroke:#000000"
       id="path238" />
    <path
       d="m 0.25,1141.0394 a 0.25,0.25 0 0 0 -0.5,0 0.25,0.25 0 0 0 0.5,0 z"
       style="fill:none;stroke:#000000"
       id="path240" />
    <path
       d="m 0.25,1178.0787 a 0.25,0.25 0 0 0 -0.5,0 0.25,0.25 0 0 0 0.5,0 z"
       style="fill:none;stroke:#000000"
       id="path242" />
    <path
       d="m 0.25,1215.1181 a 0.25,0.25 0 0 0 -0.5,0 0.25,0.25 0 0 0 0.5,0 z"
       style="fill:none;stroke:#000000"
       id="path244" />
    <path
       d="m 0.25,1252.1575 a 0.25,0.25 0 0 0 -0.5,0 0.25,0.25 0 0 0 0.5,0 z"
       style="fill:none;stroke:#000000"
       id="path246" />
    <path
       d="m 0.25,1289.1969 a 0.25,0.25 0 0 0 -0.5,0 0.25,0.25 0 0 0 0.5,0 z"
       style="fill:none;stroke:#000000"
       id="path248" />
    <path
       style="fill:none;stroke:#000000"
       d="m 36.2835,944.882 h -72.567"
       id="path254" />
    <path
       style="fill:none;stroke:#000000"
       d="M -36.2835,944.882 V 1300.16"
       id="path256" />
    <path
       style="fill:none;stroke:#000000"
       d="m -36.2835,1300.16 h 72.567"
       id="path258" />
    <path
       style="fill:none;stroke:#000000"
       d="M 36.2835,1300.16 V 944.882"
       id="path260" />
  </g>
</svg>
